<svg xmlns="http://www.w3.org/2000/svg" width="28" height="18" viewBox="0 0 28 18">
  <path fill="#FF6033" d="M.966249002 8.83564354C.307000352 9.23434354-.0151994681 9.68074354.000550527365 10.1752935L.000550527365 11.5162935C.0163005319 12.0112935.346150352 12.4500435.990549002 12.8329935L7.91739 16.8312435C7.95852 16.8553185 8.00442 16.8701235 8.051895 16.8745785 8.099325 16.8790335 8.14716 16.8730485 8.19207 16.8570285 8.236935 16.8410535 8.277795 16.8154485 8.31177 16.7819685 8.3457 16.7485335 8.37189 16.7080785 8.38854 16.6633935L9.94374 12.9049935 6.64524 11.0374935C6.550155 10.9881735 6.470235 10.9140135 6.41394 10.8228435 6.371775 10.7543535 6.343695 10.6781235 6.33132 10.5986535 6.3189 10.5191835 6.3225 10.4380485 6.341805 10.3599735 6.36111 10.2818535 6.39576 10.2084135 6.443775 10.1438835 6.49179 10.0793535 6.55218 10.0249935 6.62139 9.98404354L12.67704 6.27289354 15.17409.192502986C15.18408.164024286 15.18498.133146186 15.1767.104129286 15.16842.0751128358 15.151275.0493876858 15.12774.0305031658 15.10434.0118511608 15.075585.00121342178 15.045705 1.77635684e-15 15.01578-.000893289224 14.98635.00769352078 14.96169.0246531658L.966249002 8.83564354zM26.46009 4.93279354L19.62819.791011536C19.58859.766311036 19.54413.750390036 19.49787.744315036 19.451565.738244536 19.404495.742164036 19.359855.755808036 19.315215.769452036 19.27404.792510036 19.23903.823420536 19.204065.854335536 19.17612.892383036 19.15704.935011536L17.55504 4.69339354 20.80629 6.63289354C20.89989 6.68374354 20.97774 6.75979354 21.03219 6.85249354 21.086775 6.94550854 21.11553 7.05139354 21.11553 7.15916854 21.11553 7.26698854 21.086775 7.37287354 21.03219 7.46584354 20.978235 7.55840854 20.90016 7.63463854 20.80629 7.68634354L14.70384 11.2773435 12.11184 17.3104935C12.086775 17.3391585 12.073905 17.3765535 12.07611 17.4146235 12.078315 17.4526485 12.095325 17.4882885 12.12354 17.5138935 12.1374 17.5264935 12.1536 17.5361235 12.171195 17.5423785 12.188835 17.5485885 12.20751 17.5512435 12.22614 17.5501185 12.244815 17.5490385 12.26304 17.5442685 12.279825 17.5360335 12.296565 17.5277985 12.31155 17.5162785 12.32379 17.5021935L16.80084 14.7967935 18.56799 17.3347935C18.606645 17.3932935 18.65907 17.4413085 18.720675 17.4746535 18.782325 17.5080435 18.851175 17.5256835 18.92124 17.5260435L23.16249 17.5260435C23.239845 17.5263135 23.31576 17.5051635 23.38182 17.4649785 23.44788 17.4247935 23.501565 17.3671485 23.53689 17.2983435 23.57325 17.2294035 23.59044 17.1519585 23.58675 17.0740635 23.583015 16.9962135 23.55849 16.9207485 23.51574 16.8555435L20.64114 12.4500435 26.46099 8.93104354C27.12069 8.53189354 27.45054 8.08504354 27.45054 7.59004354L27.45054 6.27334354C27.45054 5.77834354 27.12069 5.33194354 26.46054 4.93279354L26.46009 4.93279354z"/>
</svg>
